<svg xmlns="http://www.w3.org/2000/svg" width="154.837" height="34.908" viewBox="0 0 154.837 34.908">
  <path id="パス_4163" data-name="パス 4163" d="M12.461-28.789a1.381,1.381,0,0,1,.605.371.725.725,0,0,1,.176.469.888.888,0,0,1-.176.508q-.176.254-.684.977t-1.5,2.227q-1,1.5-1.68,2.383a12.7,12.7,0,0,1-1.309,1.465,6.115,6.115,0,0,1-1,.8,2.557,2.557,0,0,1-.723.293,1.346,1.346,0,0,1-.645,0A1.761,1.761,0,0,1,5-19.531a.884.884,0,0,1-.312-.312.335.335,0,0,1-.02-.293,6.463,6.463,0,0,1,.82-.9q.762-.762,1.6-1.738t1.582-1.992q.742-1.016,1.27-1.855t.8-1.25a3.136,3.136,0,0,1,.547-.645,1.249,1.249,0,0,1,.586-.293A1.262,1.262,0,0,1,12.461-28.789Zm11.563-1.836a3.684,3.684,0,0,1,1.016.059,4.229,4.229,0,0,1,1.016.371,6.46,6.46,0,0,1,1.133.742q.586.469,1.5,1.27t1.719,1.641a13.371,13.371,0,0,1,1.094,1.25,2.754,2.754,0,0,1,.41.8,2.23,2.23,0,0,1,.1.762,1.787,1.787,0,0,1-.215.742.739.739,0,0,1-.508.43,1.277,1.277,0,0,1-.625-.039,1.615,1.615,0,0,1-.566-.312,2.758,2.758,0,0,1-.508-.605,1.647,1.647,0,0,1-.254-.918,1.459,1.459,0,0,0-.215-.84,3.97,3.97,0,0,0-.664-.7,12.384,12.384,0,0,0-1.172-.879q-.723-.488-1.445-1.055a10.845,10.845,0,0,1-1.25-1.133,5.751,5.751,0,0,1-.664-.8,1.085,1.085,0,0,1-.156-.41Q23.75-30.43,24.023-30.625Zm-5.234,4.258a1.892,1.892,0,0,1,.566.625,1.056,1.056,0,0,1-.02.527,4.537,4.537,0,0,1-.176.586,2.014,2.014,0,0,1-.176.371,5.063,5.063,0,0,1,.664.215,7.031,7.031,0,0,1,1.25.684,31.456,31.456,0,0,1,2.52,1.953q1.738,1.445,3.3,2.676t2.852,2.109q1.289.879,2.676,1.68t2.891,1.5A5.247,5.247,0,0,1,36.855-12.4a1.083,1.083,0,0,1,.215.527q0,.2-.273.254a3.419,3.419,0,0,1-1-.039,7.982,7.982,0,0,1-1.738-.488,20.21,20.21,0,0,1-2.285-1.074q-1.27-.684-2.832-1.719T25.254-17.52q-2.129-1.543-3.2-2.441t-1.777-1.426a12.266,12.266,0,0,0-1.289-.859q-.586-.332-.9-.527-.352.508-1.113,1.582t-2.187,2.91A30.66,30.66,0,0,1,11.973-15.1q-1.387,1.348-2.4,2.324t-1.8,1.621a9.326,9.326,0,0,1-1.27.918,3.071,3.071,0,0,1-1.152.352,7,7,0,0,1-1.27.039,2.706,2.706,0,0,1-.82-.137.433.433,0,0,1-.254-.215q-.039-.117.1-.254a1.777,1.777,0,0,1,.449-.293q.312-.156,1.25-.781a25.107,25.107,0,0,0,2.246-1.738q1.309-1.113,2.676-2.422t2.441-2.52q1.074-1.211,1.934-2.383t1.6-2.4q.742-1.23,1.152-1.934a11.826,11.826,0,0,1,.7-1.094,1.456,1.456,0,0,1,.527-.488A.912.912,0,0,1,18.789-26.367ZM12.227-10.312q6.8-3.945,9.414-4.414a6.151,6.151,0,0,1,3.711.117,4.6,4.6,0,0,1,1.66,1.406q.566.82-.059,3.105a14.3,14.3,0,0,1-2.07,4.375q-1.445,2.09-1.7,2.5T20.508-2.129A32.987,32.987,0,0,0,14.1.742q0,.859-.605,1a.929.929,0,0,1-1.016-.43,17.244,17.244,0,0,1-1.27-3.848,33.414,33.414,0,0,1-1.055-6.309q-.2-3.027.1-3.281t1.016.234A2.418,2.418,0,0,1,12.227-10.312Zm12.227-2.7q-1.875-1.055-11.836,4.844a22.088,22.088,0,0,0,1.055,6.875,30.969,30.969,0,0,1,7.461-3.125Q24.1-8.4,24.492-10.723T24.453-13.008Zm18.594-8.359a69.206,69.206,0,0,0,8.984-3.867,6.833,6.833,0,0,0-.723-3.5q-.684-1.035-.137-1.387t1.289.215a2.48,2.48,0,0,1,.938,1.543q.2.977.352,2.188a20.884,20.884,0,0,1,3.379-1.543,1.209,1.209,0,0,1,1.387.586q.547.8-.527,1.406a11.216,11.216,0,0,1-2.324.977,7.036,7.036,0,0,0-1.719.684q0,1.8-.059,3.262t.1,4.238a61.776,61.776,0,0,0,5.371,3.672q2.012,1.172,1.836,1.543a1.263,1.263,0,0,1-.41.527q-.234.156-2.09-.879a53.464,53.464,0,0,1-4.707-3.066q-.039,2.813-.02,7.363T53.789.078q-.2,2.93-.781,3.008T51.68,2.227A1.673,1.673,0,0,1,51.406.332q.469-.957.586-14.668a31.719,31.719,0,0,1-4.707,8.75q-2.363,2.773-2.949,2.324a1.106,1.106,0,0,1-.488-1.094A4.774,4.774,0,0,1,45.02-6.27a28.322,28.322,0,0,0,2.7-4.16,24.969,24.969,0,0,0,2.441-6.152q.82-3.262,1.152-3.223a.827.827,0,0,0,.527-.078q.2-.117.176-1t.02-2.4a42.667,42.667,0,0,1-5.781,2.813,4.922,4.922,0,0,1-3.066.43Q42.266-20.391,43.047-21.367Zm29.375-8.281q1.289-.391,2.637-.82a1.971,1.971,0,0,1,2.012.176q.664.605.508,1t-1.387.8a31.378,31.378,0,0,1-3.613.879q.078,4.141.156,12.188T72.383-2.773q-.43,4.609-2.266,5.293a4.251,4.251,0,0,1-3.789-.469,10.44,10.44,0,0,1-3.516-3.77q-1.563-2.617.1-1.562A13.691,13.691,0,0,1,65.9-.7Q67.227.82,68.418.508t1.66-2.07A39.4,39.4,0,0,0,70.7-8.828q.156-5.508,0-18.32-6.055,2.227-8.457,3.086t-3.145.605a3.832,3.832,0,0,1-1.25-.684q-.508-.43,2.637-1.309t10.137-3.574a7.061,7.061,0,0,0-.2-1.641q-.2-.82.449-1.055a1.409,1.409,0,0,1,1.23.1Q72.7-31.289,72.422-29.648ZM67.3-11.25q-1.016-.859-1.816-1.66T63.5-14.922a4.683,4.683,0,0,1-1.348-1.953q-.156-.742.684-.625t2.813,2.48a12.057,12.057,0,0,1,2.168,3.125Q68.008-11.133,67.3-11.25Zm29.258-5.43-2.07.508q-.039.312-.2,1.172t-.391,1.8q-.234.938-1.387,4.063a25.894,25.894,0,0,1-2.852,5.625q-1.7,2.5-2.227,3.281a5.483,5.483,0,0,1-1.152,1.27q-.625.488-1,.762a1.167,1.167,0,0,1-.664.273.8.8,0,0,1-.527-.2,1.1,1.1,0,0,1-.332-.449,1.59,1.59,0,0,1-.078-.645,2.5,2.5,0,0,1,.2-.82,6.014,6.014,0,0,1,1.367-1.5A11.33,11.33,0,0,0,87.3-4q.859-1.387,1.5-2.676t1.309-2.852q.664-1.563,1.074-2.773t.645-2.187q.234-.977.313-1.211-2.852.469-3.594-.1t-.391-1.953a5.642,5.642,0,0,1,1.6-2.617q1.25-1.23,3.867-4.121-3.477.977-5.176,1.348t-2.285-.664q-.586-1.035,1.387-1.426t4.9-1.133q2.93-.742,5.82-1.582t4.824-1.465a4.992,4.992,0,0,1,3.066-.234,1.315,1.315,0,0,1,.977,1.563q-1.758.469-3.984.938t-3.535.879q-1.309.41-1.738.527A13.965,13.965,0,0,1,95.82-23.2q-1.758,1.875-3.105,3.242a10.322,10.322,0,0,0-1.68,2.012q-.332.645,2.031-.02t5.059-1.5a20.042,20.042,0,0,0,3.555-1.348q.859-.508,1.484-.859a4.758,4.758,0,0,1-1.68-2.148q-.625-1.445,1.6-.234a17.067,17.067,0,0,1,4.609,4.141q1.719,2.3.742,2.793a.867.867,0,0,1-1.367-.527,6.948,6.948,0,0,0-2.031-2.422Q102.852-18.984,96.563-16.68ZM92.813-30.82a9.923,9.923,0,0,0,3.164.293,3.966,3.966,0,0,1,2.637.586q.918.684.645,1.055t-1.738.352a25.919,25.919,0,0,1-2.871-.2,3.061,3.061,0,0,1-1.973-.82A.8.8,0,0,1,92.813-30.82ZM110.078.9q-6.523.078-9.1-2.793A18.236,18.236,0,0,1,97.617-6.68a21.708,21.708,0,0,1-1.23-4.707q-.449-2.793.293-2.578t.859.547q.117.332.938,3.262a17.278,17.278,0,0,0,1.973,4.707A12.212,12.212,0,0,0,104-2.07,6.662,6.662,0,0,0,108.418-.7a6.11,6.11,0,0,0,2.871-.879,6.776,6.776,0,0,0,1.738-2.754,16.9,16.9,0,0,0,1.152-3.887q.273-1.777.7-1.758t.938.8q.508.781-.039,4.219T113.3-.312A6.507,6.507,0,0,1,110.078.9Zm14.141-16.758a1.1,1.1,0,0,1,0-.82,1.9,1.9,0,0,1,.566-.625,17.68,17.68,0,0,1,2.813-1.25,44.033,44.033,0,0,1,4.414-1.484q2.012-.547,3.047-.742t1.7-.293a2.179,2.179,0,0,1,.938,0,.587.587,0,0,1,.371.352,1.331,1.331,0,0,1,.078.566,1.219,1.219,0,0,1-.215.605.857.857,0,0,1-.449.371q-.254.078-1.289.273t-4.121,1.094q.039.156.078.352a7.2,7.2,0,0,1,.039,1q0,.8.254,3.242t.313,3.535a19.832,19.832,0,0,1-.059,2.578q2.031-.7,3.281-1.074t2.07-.586a3.354,3.354,0,0,1,1.211-.156.751.751,0,0,1,.547.293.963.963,0,0,1,.156.547,1.188,1.188,0,0,1-.215.645,1.084,1.084,0,0,1-.527.449q-.312.117-1.66.508t-4.414,1.563q-3.066,1.172-5.918,2.539A21.327,21.327,0,0,1,123.77-.918a2.748,2.748,0,0,1-1.035,0q-.43-.1-.508-.254a.816.816,0,0,1-.078-.762,2.339,2.339,0,0,1,.664-.742,20.944,20.944,0,0,1,3.086-1.6q2.578-1.191,4.453-1.934a4.323,4.323,0,0,1,.039-1.27,18.019,18.019,0,0,0,.137-2.148q.02-1.309-.137-3.535t-.293-2.969a7.273,7.273,0,0,1-.137-.937q-.937.313-2.539.977a8.5,8.5,0,0,1-2.07.684,1.449,1.449,0,0,1-.781-.156Q124.258-15.742,124.219-15.859Zm23.047-6.367q.391-2.617.605-4.062a17.95,17.95,0,0,0,.215-2.617q0-1.172.02-1.406a.427.427,0,0,1,.156-.332.476.476,0,0,1,.41-.02l.547.156a3.787,3.787,0,0,1,.566.527,1.479,1.479,0,0,1,.293.723,7.384,7.384,0,0,1,.059,1.309q-.02.84-.215,2.539t-.508,3.379q6.328-1.016,7.227-.2a3.847,3.847,0,0,1,1.152,2.246q.254,1.426-1,6.66A81.09,81.09,0,0,1,153.77-3.4q-1.777,4.688-2.93,4.512a3.142,3.142,0,0,1-1.758-.762,6.809,6.809,0,0,1-1.211-1.758q-.605-1.172.156-.977a2.182,2.182,0,0,1,1.191.723,1.151,1.151,0,0,0,.82.527,38.326,38.326,0,0,0,2.539-6.152q1.328-3.965,1.8-5.625t.84-3.672a20.471,20.471,0,0,0,.391-3.047q.02-1.035-.391-1.152a45.928,45.928,0,0,0-6.23.9q-.273,1.133-.664,2.578t-1.094,3.77q-.7,2.324-1.445,4.16A25.742,25.742,0,0,1,144.2-6.094q-.84,1.445-2.07,3.477T140.215.371a5.282,5.282,0,0,1-1.035,1.191,2.319,2.319,0,0,1-.625.313,1.008,1.008,0,0,1-.469.039,1.394,1.394,0,0,1-.352-.117.431.431,0,0,1-.215-.293,1.028,1.028,0,0,1,0-.488,19.432,19.432,0,0,1,1.367-2.422q1.309-2.148,2.4-4.238t2.07-3.945a26.13,26.13,0,0,0,1.8-4.57q.82-2.715,1.484-5.332-1.25.234-2.891.547a9.57,9.57,0,0,1-2.461.234.662.662,0,0,1-.664-.9q.156-.82,1.523-1.367,2.656-.391,5-.742Z" transform="translate(-2.999 31.816)"/>
</svg>
