<svg xmlns="http://www.w3.org/2000/svg" width="28" height="150.5" viewBox="0 0 28 150.5">
  <g id="グループ_2069" data-name="グループ 2069" transform="translate(-586.5 -6290.5)">
    <g id="グループ_2068" data-name="グループ 2068" transform="translate(587 6426.474)">
      <path id="線_1102" data-name="線 1102" d="M13.675,14.526a.5.5,0,0,1-.358-.151L-.358.349A.5.5,0,0,1-.349-.358a.5.5,0,0,1,.707.009L14.033,13.677a.5.5,0,0,1-.358.849Z" fill="#0063ae"/>
      <path id="線_1103" data-name="線 1103" d="M0,14.526a.5.5,0,0,1-.349-.142.5.5,0,0,1-.009-.707L13.317-.349a.5.5,0,0,1,.707-.009.5.5,0,0,1,.009.707L.358,14.375A.5.5,0,0,1,0,14.526Z" transform="translate(13.325)" fill="#0063ae"/>
    </g>
    <path id="線_1129" data-name="線 1129" d="M.5,135.5h-1V0h1Z" transform="translate(600.5 6290.5)" fill="#0063ae"/>
  </g>
</svg>
