<svg xmlns="http://www.w3.org/2000/svg" width="311.507" height="53.801" viewBox="0 0 311.507 53.801">
  <g id="グループ_2005" data-name="グループ 2005" transform="translate(-1652.948 -38.753)">
    <path id="パス_4161" data-name="パス 4161" d="M11.424.34c5.678,0,9.962-4.42,9.962-12.24S17.1-24.14,11.424-24.14C5.78-24.14,1.5-19.72,1.5-11.9S5.78.34,11.424.34Zm0-3.842c-3.23,0-5.474-2.652-5.474-8.4s2.244-8.4,5.474-8.4c3.264,0,5.508,2.652,5.508,8.4S14.688-3.5,11.424-3.5Zm13.6-20.3v3.706h5.032V0h4.42V-23.8ZM47.26-3.74l6.358-6.052c3.3-3.094,3.944-5.2,3.944-7.514,0-4.216-3.332-6.834-8.5-6.834-3.91,0-7.208,1.462-9.044,3.944l3.094,2.38A6.717,6.717,0,0,1,48.688-20.3c2.924,0,4.42,1.258,4.42,3.434,0,1.326-.408,2.72-2.72,4.93L40.936-2.958V0H58.48V-3.74ZM72.9.34c5.678,0,9.962-4.42,9.962-12.24S78.574-24.14,72.9-24.14c-5.644,0-9.928,4.42-9.928,12.24S67.252.34,72.9.34Zm0-3.842c-3.23,0-5.474-2.652-5.474-8.4s2.244-8.4,5.474-8.4c3.264,0,5.508,2.652,5.508,8.4S76.16-3.5,72.9-3.5ZM88.434-7.684h9.35V-11.22h-9.35Zm22.2-6.9h-2.278l.51-5.508H119.1V-23.8H105.128L103.9-10.846h5.746c4.93,0,6.392,1.428,6.392,3.706,0,2.244-1.87,3.638-5.032,3.638a11.268,11.268,0,0,1-7-2.346l-1.87,3.434A14.878,14.878,0,0,0,111.078.34c6.392,0,9.418-3.468,9.418-7.65C120.5-11.526,117.674-14.586,110.636-14.586Zm29.886,2.074a5.43,5.43,0,0,0,3.026-5c0-4.08-3.6-6.63-8.908-6.63-5.27,0-8.84,2.55-8.84,6.63a5.43,5.43,0,0,0,2.958,5,5.972,5.972,0,0,0-3.808,5.678c0,4.42,3.774,7.174,9.69,7.174S144.4-2.414,144.4-6.834A5.986,5.986,0,0,0,140.522-12.512Zm-5.882-8.16c2.72,0,4.556,1.224,4.556,3.366,0,2.04-1.734,3.332-4.556,3.332-2.788,0-4.488-1.292-4.488-3.332C130.152-19.448,131.92-20.672,134.64-20.672Zm0,17.544c-3.264,0-5.236-1.428-5.236-3.842,0-2.346,1.972-3.808,5.236-3.808s5.3,1.462,5.3,3.808C139.944-4.556,137.9-3.128,134.64-3.128Zm22.1-11.458h-2.278l.51-5.508h10.234V-23.8H151.232l-1.224,12.954h5.746c4.93,0,6.392,1.428,6.392,3.706,0,2.244-1.87,3.638-5.032,3.638a11.268,11.268,0,0,1-7-2.346l-1.87,3.434A14.878,14.878,0,0,0,157.182.34c6.392,0,9.418-3.468,9.418-7.65C166.6-11.526,163.778-14.586,156.74-14.586Zm14.824,6.9h9.35V-11.22h-9.35Zm22.2-6.9h-2.278l.51-5.508h10.234V-23.8H188.258l-1.224,12.954h5.746c4.93,0,6.392,1.428,6.392,3.706,0,2.244-1.87,3.638-5.032,3.638a11.268,11.268,0,0,1-7-2.346l-1.87,3.434A14.878,14.878,0,0,0,194.208.34c6.392,0,9.418-3.468,9.418-7.65C203.626-11.526,200.8-14.586,193.766-14.586Zm35.666,5.44h-4.216V-13.94h-4.148v4.794h-7.786L224.332-23.8h-4.726L207.876-8.466v3.06h13.056V0h4.284V-5.406h4.216Zm11.254-5.44h-2.278l.51-5.508h10.234V-23.8H235.178l-1.224,12.954H239.7c4.93,0,6.392,1.428,6.392,3.706,0,2.244-1.87,3.638-5.032,3.638a11.268,11.268,0,0,1-7-2.346l-1.87,3.434A14.878,14.878,0,0,0,241.128.34c6.392,0,9.418-3.468,9.418-7.65C250.546-11.526,247.724-14.586,240.686-14.586Z" transform="translate(1713.909 66)" fill="#0063ae"/>
    <path id="パス_4160" data-name="パス 4160" d="M11.8-11.7A39.509,39.509,0,0,1,1.19-10.542l.224.8a40.906,40.906,0,0,0,10.864-1.218Zm.336,4.928v2.114h.882v-2.9H10.164a11.014,11.014,0,0,0,1.274-2.394l-.84-.266A10.25,10.25,0,0,1,9.17-7.56H.98v2.9h.868V-6.776ZM7.574-8.022A7.127,7.127,0,0,0,6.916-9.73L6.1-9.492a8.665,8.665,0,0,1,.644,1.75Zm-3.332.014A7.244,7.244,0,0,0,3.458-9.59l-.784.266A8.306,8.306,0,0,1,3.444-7.7ZM13.09.112a21.945,21.945,0,0,1-5.278-1.47,8.922,8.922,0,0,0,3.122-3.094v-.8H2.786v.784H9.912a7.9,7.9,0,0,1-3,2.646A11.961,11.961,0,0,1,4-4.144l-.714.476a12.732,12.732,0,0,0,2.716,2.31A21.184,21.184,0,0,1,.98.112l.28.84A19.369,19.369,0,0,0,6.9-.854,21.617,21.617,0,0,0,12.81.952Zm5.838-11.928A12.392,12.392,0,0,1,15.26-5.572l.546.784a10.825,10.825,0,0,0,1.722-1.89V1.036h.91V-8.148a15.823,15.823,0,0,0,1.33-3.388Zm7.238,2.884v-2.744h-.9v2.744H19.348v.84H25.27V-.056H22.288l.266.882h2.632c.7,0,.98-.28.98-.98V-8.092h2.016v-.84ZM23.114-3.01a20.3,20.3,0,0,0-2.38-3.6l-.686.5a20.849,20.849,0,0,1,2.3,3.57Zm19.95-4.144H39.326V-9.128h3.4V-9.9h-3.4v-1.848h-.854V-9.9H35.336v.77h3.136v1.974H35.056v.8h5.292v1.918H35.21v.8h5.138V.112H37.94l.238.812h2.114c.63,0,.91-.28.91-.91V-3.64h1.722v-.8H41.2V-6.356h1.862ZM31.626.518V-.77H34.44V-11.228h-3.7V.518Zm1.988-7.182H31.6v-3.794h2.016ZM31.6-5.88h2.016v4.326H31.6Zm4.466,3.332A13.478,13.478,0,0,1,37.786-.6L38.4-1.12a12.4,12.4,0,0,0-1.736-1.96Zm9.674-8.68V.924h.9v-7.5H50.75v-4.648ZM52.066-6.58h4.34V-.056h-2.24l.154.784h2.044c.672,0,.938-.252.938-.8V-11.228H52.066ZM46.634-9.3v-1.2H49.91v1.2Zm6.272,0v-1.2h3.5v1.2ZM46.634-7.308V-8.6H49.91v1.288Zm6.272,0V-8.6h3.5v1.288ZM48.552-5.4V.378h.882V-.434H54.32V-5.4Zm4.9,2.072H49.42V-4.7h4.032ZM49.42-2.66h4.032v1.526H49.42ZM67.816,0a8.1,8.1,0,0,0,3.668-6.524c0-2.408-1.3-3.92-3.416-3.92A3.219,3.219,0,0,0,64.68-7.056a2.937,2.937,0,0,0,3.038,3.164A2.7,2.7,0,0,0,70.2-5.362l.07.028C69.72-2.954,68.5-1.61,66.3,0Zm.266-4.886a1.994,1.994,0,0,1-2.184-2.2v-.14a1.994,1.994,0,0,1,2.184-2.2,1.994,1.994,0,0,1,2.184,2.2v.14A1.988,1.988,0,0,1,68.082-4.886ZM75.474-5.95a.756.756,0,0,0,.854-.812v-.182a.756.756,0,0,0-.854-.812.756.756,0,0,0-.854.812v.182A.756.756,0,0,0,75.474-5.95Zm0,6.118a.756.756,0,0,0,.854-.812V-.826a.756.756,0,0,0-.854-.812.756.756,0,0,0-.854.812v.182A.756.756,0,0,0,75.474.168Zm7.392.014C85.3.182,86.38-1.75,86.38-5.124s-1.078-5.32-3.514-5.32-3.514,1.932-3.514,5.32S80.43.182,82.866.182Zm0-1.022c-1.61,0-2.282-1.414-2.282-3.472V-5.95c0-2.058.672-3.472,2.282-3.472s2.282,1.414,2.282,3.472v1.638C85.148-2.254,84.476-.84,82.866-.84ZM92.526.182c2.436,0,3.514-1.932,3.514-5.306s-1.078-5.32-3.514-5.32-3.514,1.932-3.514,5.32S90.09.182,92.526.182Zm0-1.022c-1.61,0-2.282-1.414-2.282-3.472V-5.95c0-2.058.672-3.472,2.282-3.472s2.282,1.414,2.282,3.472v1.638C94.808-2.254,94.136-.84,92.526-.84Zm14.826-3.08a3.158,3.158,0,0,0,2.408-1.288l-.5-.686a2.6,2.6,0,0,1-1.932,1.022,5.112,5.112,0,0,1-2.366-.9A5.461,5.461,0,0,0,102.2-6.72a3.158,3.158,0,0,0-2.408,1.288l.5.686a2.6,2.6,0,0,1,1.932-1.022,5.112,5.112,0,0,1,2.366.9A5.461,5.461,0,0,0,107.352-3.92Zm13.286,2.884h-2.674v-9.226H116.13l-2.744,2.548.686.742,2.618-2.422h.1v8.358h-2.9V0h6.748ZM130-9.226v-1.036h-6.72v2.954h1.05V-9.254h4.48L124.866,0h1.26Zm4.074,3.276a.756.756,0,0,0,.854-.812v-.182a.756.756,0,0,0-.854-.812.756.756,0,0,0-.854.812v.182A.756.756,0,0,0,134.078-5.95Zm0,6.118a.756.756,0,0,0,.854-.812V-.826a.756.756,0,0,0-.854-.812.756.756,0,0,0-.854.812v.182A.756.756,0,0,0,134.078.168Zm7.392.014c2.436,0,3.514-1.932,3.514-5.306s-1.078-5.32-3.514-5.32-3.514,1.932-3.514,5.32S139.034.182,141.47.182Zm0-1.022c-1.61,0-2.282-1.414-2.282-3.472V-5.95c0-2.058.672-3.472,2.282-3.472s2.282,1.414,2.282,3.472v1.638C143.752-2.254,143.08-.84,141.47-.84ZM151.13.182c2.436,0,3.514-1.932,3.514-5.306s-1.078-5.32-3.514-5.32-3.514,1.932-3.514,5.32S148.694.182,151.13.182Zm0-1.022c-1.61,0-2.282-1.414-2.282-3.472V-5.95c0-2.058.672-3.472,2.282-3.472s2.282,1.414,2.282,3.472v1.638C153.412-2.254,152.74-.84,151.13-.84ZM170-5.334a8.316,8.316,0,0,0,2.8,6.342h1.05a8,8,0,0,1-2.842-5.992v-.7a8,8,0,0,1,2.842-5.992H172.8A8.316,8.316,0,0,0,170-5.334ZM182.9-6.076h5.194v-.868H182.9V-11.55h-.952v4.606h-4.97v.868h4.97V-.6h-5.656V.28h12.488V-.6H182.9ZM192.5.9h.938V-.2h7.882V.9h.924V-10.948H192.5Zm8.82-6.958h-7.882v-4.032h7.882Zm-7.882.84h7.882v4.158h-7.882Zm18.774.924a.86.86,0,0,0,.98-.91v-.224a.86.86,0,0,0-.98-.91.86.86,0,0,0-.98.91v.224A.86.86,0,0,0,212.212-4.3ZM224.49-5.53c-.14-.154-.294-.2-.448-.07l-.168.126h-.07v-.042a11.431,11.431,0,0,0,1.862-3.374v-.686H223.79v-2.1h-.854v2.1h-2v.8h3.836A12.963,12.963,0,0,1,220.6-3.444l.462.7a14.764,14.764,0,0,0,1.89-1.778V1.036h.854v-6.02c0-.1.042-.1.1-.028l1.708,2.128.56-.546ZM232.624.014h-1.036c-.42,0-.532-.112-.532-.6V-5.4h1.582v-5.7h-6.216v5.7h1.428c-.028,2.828-.77,4.4-3.066,5.74l.5.728c2.52-1.47,3.4-3.332,3.43-6.468h1.456V-.5c0,.994.364,1.3,1.2,1.3H232.6c.6,0,.784-.182.784-.812V-2.786l-.756-.252Zm-.868-10.36V-6.16H227.3v-4.186ZM237.02.9h.938V-.2h7.882V.9h.924V-10.948H237.02Zm8.82-6.958h-7.882v-4.032h7.882Zm-7.882.84h7.882v4.158h-7.882ZM257.8-.406c-.168,0-.336,0-.49-.014V-3.542h4.564v-.784h-4.564v-2.38h4.564v-.6h.868v-2.828h-5.67V-11.69h-.9v1.554h-5.446v2.828h.868v.6h4.816V-.518c-1.862-.35-2.716-1.526-2.716-3.78V-5.4h-.924v1.078c0,2.044-.434,2.954-2.3,4.2l.532.77c1.708-1.19,2.072-2.03,2.184-3.528h.1C253.512-.462,255,.392,257.908.392h4.76l.154-.8Zm4.074-8.918v1.806H251.594V-9.324Zm6.4-2.492a12.715,12.715,0,0,1-3.3,6.272l.532.77a9.954,9.954,0,0,0,1.4-1.652V1.036h.882V-7.938a16.424,16.424,0,0,0,1.316-3.626Zm9.646,3.57v-.812h-4.242v-2.576h-.882v2.576H268.8v.812h3.808c-.35,2.016-1.5,3.962-4.214,6.272l.6.728c2.226-1.946,3.346-3.444,3.7-5.7h.1v7.98h.882v-7.98h.1c.378,2.2,1.624,3.724,3.738,5.7l.6-.728c-2.548-2.324-3.878-4.256-4.256-6.272ZM284.1-5.334a8.316,8.316,0,0,0-2.8-6.342h-1.05a8,8,0,0,1,2.842,5.992v.7a8,8,0,0,1-2.842,5.992h1.05A8.316,8.316,0,0,0,284.1-5.334Z" transform="translate(1653.023 91.49)" fill="#0063ae"/>
    <g id="フリーダイヤルのアイコン" transform="translate(1652.948 38.752)">
      <path id="パス_4149" data-name="パス 4149" d="M0,88.032v4.761a27.44,27.44,0,0,1,10.01,1.871q.827.327,1.6.7A25.369,25.369,0,0,1,15.4,93.912a27.857,27.857,0,0,1,7.867-1.119,27.451,27.451,0,0,1,10.054,1.871q.827.327,1.6.7a25.389,25.389,0,0,1,3.789-1.452,27.871,27.871,0,0,1,7.824-1.119V88.032Z" transform="translate(0 -88.032)" fill="#0063ae"/>
      <path id="パス_4150" data-name="パス 4150" d="M320.59,213.3a5.786,5.786,0,0,0,9.019,4.8,5.773,5.773,0,0,0,2.552-4.8,4.937,4.937,0,0,0-.372-1.819,8.017,8.017,0,0,0-1.151-1.962,14.627,14.627,0,0,0-4.263-3.553,15.728,15.728,0,0,0-3.5,2.676,8.694,8.694,0,0,0-1.992,3.05A4.832,4.832,0,0,0,320.59,213.3Z" transform="translate(-291.45 -195.246)" fill="#0063ae"/>
      <path id="パス_4151" data-name="パス 4151" d="M40.588,176.965a11.67,11.67,0,0,1,2.659,4.131,7.833,7.833,0,0,1,.463,2.606,8.785,8.785,0,1,1-17.57,0,8.332,8.332,0,0,1,1.007-3.851,13.1,13.1,0,0,1,2.653-3.42,18.261,18.261,0,0,1,1.9-1.556c-.459-.168-.931-.326-1.415-.469a24.884,24.884,0,0,0-7.019-1,24.541,24.541,0,0,0-8.435,1.466,17.6,17.6,0,0,1,2.442,2.09,11.678,11.678,0,0,1,2.659,4.131A7.824,7.824,0,0,1,20.4,183.7a8.785,8.785,0,1,1-17.57,0,8.335,8.335,0,0,1,1.007-3.851,13.1,13.1,0,0,1,2.654-3.42,18.21,18.21,0,0,1,1.9-1.556c-.46-.168-.93-.326-1.415-.469a24.9,24.9,0,0,0-6.976-1v22.775H46.539V173.409a24.548,24.548,0,0,0-8.392,1.466A17.588,17.588,0,0,1,40.588,176.965Z" transform="translate(0 -165.649)" fill="#0063ae"/>
      <path id="パス_4152" data-name="パス 4152" d="M64.118,213.3a5.786,5.786,0,0,0,9.018,4.8,5.776,5.776,0,0,0,2.552-4.8,4.951,4.951,0,0,0-.372-1.819,8.043,8.043,0,0,0-1.151-1.962,14.64,14.64,0,0,0-4.263-3.553,15.714,15.714,0,0,0-3.5,2.676,8.693,8.693,0,0,0-1.992,3.05A4.825,4.825,0,0,0,64.118,213.3Z" transform="translate(-58.29 -195.246)" fill="#0063ae"/>
    </g>
  </g>
</svg>
