<svg xmlns="http://www.w3.org/2000/svg" width="218.908" height="37.792" viewBox="0 0 218.908 37.792">
  <g id="グループ_1976" data-name="グループ 1976" transform="translate(-1652.948 -36.968)">
    <path id="パス_4158" data-name="パス 4158" d="M8.064.24C12.072.24,15.1-2.88,15.1-8.4s-3.024-8.64-7.032-8.64c-3.984,0-7.008,3.12-7.008,8.64S4.08.24,8.064.24Zm0-2.712C5.784-2.472,4.2-4.344,4.2-8.4s1.584-5.928,3.864-5.928c2.3,0,3.888,1.872,3.888,5.928S10.368-2.472,8.064-2.472Zm9.6-14.328v2.616h3.552V0h3.12V-16.8ZM33.36-2.64l4.488-4.272c2.328-2.184,2.784-3.672,2.784-5.3,0-2.976-2.352-4.824-6-4.824a7.758,7.758,0,0,0-6.384,2.784l2.184,1.68a4.742,4.742,0,0,1,3.936-1.752c2.064,0,3.12.888,3.12,2.424,0,.936-.288,1.92-1.92,3.48L28.9-2.088V0H41.28V-2.64ZM51.456.24c4.008,0,7.032-3.12,7.032-8.64s-3.024-8.64-7.032-8.64c-3.984,0-7.008,3.12-7.008,8.64S47.472.24,51.456.24Zm0-2.712c-2.28,0-3.864-1.872-3.864-5.928s1.584-5.928,3.864-5.928c2.3,0,3.888,1.872,3.888,5.928S53.76-2.472,51.456-2.472ZM62.424-5.424h6.6v-2.5h-6.6ZM78.1-10.3H76.488l.36-3.888h7.224V-16.8H74.208l-.864,9.144H77.4c3.48,0,4.512,1.008,4.512,2.616,0,1.584-1.32,2.568-3.552,2.568a7.954,7.954,0,0,1-4.944-1.656L72.1-1.7A10.5,10.5,0,0,0,78.408.24c4.512,0,6.648-2.448,6.648-5.4C85.056-8.136,83.064-10.3,78.1-10.3Zm21.1,1.464a3.833,3.833,0,0,0,2.136-3.528c0-2.88-2.544-4.68-6.288-4.68-3.72,0-6.24,1.8-6.24,4.68a3.833,3.833,0,0,0,2.088,3.528A4.216,4.216,0,0,0,88.2-4.824C88.2-1.7,90.864.24,95.04.24s6.888-1.944,6.888-5.064A4.225,4.225,0,0,0,99.192-8.832Zm-4.152-5.76c1.92,0,3.216.864,3.216,2.376,0,1.44-1.224,2.352-3.216,2.352-1.968,0-3.168-.912-3.168-2.352C91.872-13.728,93.12-14.592,95.04-14.592Zm0,12.384c-2.3,0-3.7-1.008-3.7-2.712,0-1.656,1.392-2.688,3.7-2.688s3.744,1.032,3.744,2.688C98.784-3.216,97.344-2.208,95.04-2.208Zm15.6-8.088h-1.608l.36-3.888h7.224V-16.8h-9.864l-.864,9.144h4.056c3.48,0,4.512,1.008,4.512,2.616,0,1.584-1.32,2.568-3.552,2.568a7.954,7.954,0,0,1-4.944-1.656L104.64-1.7A10.5,10.5,0,0,0,110.952.24c4.512,0,6.648-2.448,6.648-5.4C117.6-8.136,115.608-10.3,110.64-10.3ZM121.1-5.424h6.6v-2.5h-6.6ZM136.776-10.3h-1.608l.36-3.888h7.224V-16.8h-9.864l-.864,9.144h4.056c3.48,0,4.512,1.008,4.512,2.616,0,1.584-1.32,2.568-3.552,2.568A7.954,7.954,0,0,1,132.1-4.128L130.776-1.7A10.5,10.5,0,0,0,137.088.24c4.512,0,6.648-2.448,6.648-5.4C143.736-8.136,141.744-10.3,136.776-10.3Zm25.176,3.84h-2.976V-9.84h-2.928v3.384h-5.5l7.8-10.344h-3.336l-8.28,10.824v2.16h9.216V0h3.024V-3.816h2.976ZM169.9-10.3h-1.608l.36-3.888h7.224V-16.8h-9.864l-.864,9.144H169.2c3.48,0,4.512,1.008,4.512,2.616,0,1.584-1.32,2.568-3.552,2.568a7.954,7.954,0,0,1-4.944-1.656L163.9-1.7A10.5,10.5,0,0,0,170.208.24c4.512,0,6.648-2.448,6.648-5.4C176.856-8.136,174.864-10.3,169.9-10.3Z" transform="translate(1695 56)" fill="#0063ae"/>
    <path id="パス_4159" data-name="パス 4159" d="M8.43-8.36a28.221,28.221,0,0,1-7.58.83l.16.57a29.219,29.219,0,0,0,7.76-.87Zm.24,3.52v1.51H9.3V-5.4H7.26a7.867,7.867,0,0,0,.91-1.71l-.6-.19A7.322,7.322,0,0,1,6.55-5.4H.7v2.07h.62V-4.84ZM5.41-5.73a5.09,5.09,0,0,0-.47-1.22l-.58.17a6.189,6.189,0,0,1,.46,1.25Zm-2.38.01a5.174,5.174,0,0,0-.56-1.13l-.56.19A5.933,5.933,0,0,1,2.46-5.5ZM9.35.08A15.675,15.675,0,0,1,5.58-.97,6.373,6.373,0,0,0,7.81-3.18v-.57H1.99v.56H7.08A5.642,5.642,0,0,1,4.94-1.3,8.544,8.544,0,0,1,2.86-2.96l-.51.34A9.094,9.094,0,0,0,4.29-.97,15.131,15.131,0,0,1,.7.08l.2.6A13.835,13.835,0,0,0,4.93-.61,15.441,15.441,0,0,0,9.15.68Zm4.17-8.52A8.851,8.851,0,0,1,10.9-3.98l.39.56a7.732,7.732,0,0,0,1.23-1.35V.74h.65V-5.82a11.3,11.3,0,0,0,.95-2.42Zm5.17,2.06V-8.34h-.64v1.96H13.82v.6h4.23V-.04H15.92l.19.63h1.88c.5,0,.7-.2.7-.7V-5.78h1.44v-.6ZM16.51-2.15a14.5,14.5,0,0,0-1.7-2.57l-.49.36a14.892,14.892,0,0,1,1.64,2.55ZM30.76-5.11H28.09V-6.52h2.43v-.55H28.09V-8.39h-.61v1.32H25.24v.55h2.24v1.41H25.04v.57h3.78v1.37H25.15v.57h3.67V.08H27.1l.17.58h1.51c.45,0,.65-.2.65-.65V-2.6h1.23v-.57H29.43V-4.54h1.33ZM22.59.37V-.55H24.6V-8.02H21.96V.37Zm1.42-5.13H22.57V-7.47h1.44Zm-1.44.56h1.44v3.09H22.57Zm3.19,2.38A9.627,9.627,0,0,1,26.99-.43l.44-.37a8.857,8.857,0,0,0-1.24-1.4Zm6.91-6.2V.66h.64V-4.7h2.94V-8.02ZM37.19-4.7h3.1V-.04h-1.6l.11.56h1.46c.48,0,.67-.18.67-.57V-8.02H37.19ZM33.31-6.64V-7.5h2.34v.86Zm4.48,0V-7.5h2.5v.86ZM33.31-5.22v-.92h2.34v.92Zm4.48,0v-.92h2.5v.92ZM34.68-3.86V.27h.63V-.31H38.8V-3.86Zm3.5,1.48H35.3v-.98h2.88ZM35.3-1.9h2.88V-.81H35.3ZM48.44,0a5.786,5.786,0,0,0,2.62-4.66c0-1.72-.93-2.8-2.44-2.8A2.3,2.3,0,0,0,46.2-5.04a2.1,2.1,0,0,0,2.17,2.26,1.927,1.927,0,0,0,1.77-1.05l.05.02A6.118,6.118,0,0,1,47.36,0Zm.19-3.49a1.424,1.424,0,0,1-1.56-1.57v-.1a1.424,1.424,0,0,1,1.56-1.57,1.424,1.424,0,0,1,1.56,1.57v.1A1.42,1.42,0,0,1,48.63-3.49Zm5.28-.76a.54.54,0,0,0,.61-.58v-.13a.54.54,0,0,0-.61-.58.54.54,0,0,0-.61.58v.13A.54.54,0,0,0,53.91-4.25Zm0,4.37a.54.54,0,0,0,.61-.58V-.59a.54.54,0,0,0-.61-.58.54.54,0,0,0-.61.58v.13A.54.54,0,0,0,53.91.12Zm5.28.01c1.74,0,2.51-1.38,2.51-3.79s-.77-3.8-2.51-3.8-2.51,1.38-2.51,3.8S57.45.13,59.19.13Zm0-.73c-1.15,0-1.63-1.01-1.63-2.48V-4.25c0-1.47.48-2.48,1.63-2.48s1.63,1.01,1.63,2.48v1.17C60.82-1.61,60.34-.6,59.19-.6Zm6.9.73c1.74,0,2.51-1.38,2.51-3.79s-.77-3.8-2.51-3.8-2.51,1.38-2.51,3.8S64.35.13,66.09.13Zm0-.73c-1.15,0-1.63-1.01-1.63-2.48V-4.25c0-1.47.48-2.48,1.63-2.48s1.63,1.01,1.63,2.48v1.17C67.72-1.61,67.24-.6,66.09-.6ZM76.68-2.8a2.256,2.256,0,0,0,1.72-.92l-.36-.49a1.854,1.854,0,0,1-1.38.73,3.651,3.651,0,0,1-1.69-.64A3.9,3.9,0,0,0,73-4.8a2.256,2.256,0,0,0-1.72.92l.36.49a1.854,1.854,0,0,1,1.38-.73,3.651,3.651,0,0,1,1.69.64A3.9,3.9,0,0,0,76.68-2.8ZM86.17-.74H84.26V-7.33H82.95L80.99-5.51l.49.53,1.87-1.73h.07V-.74H81.35V0h4.82Zm6.69-5.85v-.74h-4.8v2.11h.75V-6.61h3.2L89.19,0h.9Zm2.91,2.34a.54.54,0,0,0,.61-.58v-.13a.54.54,0,0,0-.61-.58.54.54,0,0,0-.61.58v.13A.54.54,0,0,0,95.77-4.25Zm0,4.37a.54.54,0,0,0,.61-.58V-.59a.54.54,0,0,0-.61-.58.54.54,0,0,0-.61.58v.13A.54.54,0,0,0,95.77.12Zm5.28.01c1.74,0,2.51-1.38,2.51-3.79s-.77-3.8-2.51-3.8-2.51,1.38-2.51,3.8S99.31.13,101.05.13Zm0-.73c-1.15,0-1.63-1.01-1.63-2.48V-4.25c0-1.47.48-2.48,1.63-2.48s1.63,1.01,1.63,2.48v1.17C102.68-1.61,102.2-.6,101.05-.6Zm6.9.73c1.74,0,2.51-1.38,2.51-3.79s-.77-3.8-2.51-3.8-2.51,1.38-2.51,3.8S106.21.13,107.95.13Zm0-.73c-1.15,0-1.63-1.01-1.63-2.48V-4.25c0-1.47.48-2.48,1.63-2.48s1.63,1.01,1.63,2.48v1.17C109.58-1.61,109.1-.6,107.95-.6Zm13.48-3.21a5.94,5.94,0,0,0,2,4.53h.75a5.717,5.717,0,0,1-2.03-4.28v-.5a5.717,5.717,0,0,1,2.03-4.28h-.75A5.94,5.94,0,0,0,121.43-3.81Zm9.21-.53h3.71v-.62h-3.71V-8.25h-.68v3.29h-3.55v.62h3.55V-.43h-4.04V.2h8.92V-.43h-4.2ZM137.5.64h.67V-.14h5.63V.64h.66V-7.82H137.5Zm6.3-4.97h-5.63V-7.21h5.63Zm-5.63.6h5.63V-.76h-5.63Zm13.41.66a.614.614,0,0,0,.7-.65v-.16a.614.614,0,0,0-.7-.65.614.614,0,0,0-.7.65v.16A.614.614,0,0,0,151.58-3.07Zm8.77-.88c-.1-.11-.21-.14-.32-.05l-.12.09h-.05v-.03a8.165,8.165,0,0,0,1.33-2.41v-.49h-1.34v-1.5h-.61v1.5h-1.43v.57h2.74a9.259,9.259,0,0,1-2.98,3.81l.33.5a10.548,10.548,0,0,0,1.35-1.27V.74h.61v-4.3c0-.07.03-.07.07-.02l1.22,1.52.4-.39ZM166.16.01h-.74c-.3,0-.38-.08-.38-.43V-3.86h1.13V-7.93h-4.44v4.07h1.02c-.02,2.02-.55,3.14-2.19,4.1l.36.52c1.8-1.05,2.43-2.38,2.45-4.62h1.04v3.5c0,.71.26.93.86.93h.87c.43,0,.56-.13.56-.58V-1.99l-.54-.18Zm-.62-7.4V-4.4h-3.18V-7.39ZM169.3.64h.67V-.14h5.63V.64h.66V-7.82H169.3Zm6.3-4.97h-5.63V-7.21h5.63Zm-5.63.6h5.63V-.76h-5.63ZM184.14-.29c-.12,0-.24,0-.35-.01V-2.53h3.26v-.56h-3.26v-1.7h3.26v-.43h.62V-7.24h-4.05V-8.35h-.64v1.11h-3.89v2.02h.62v.43h3.44V-.37c-1.33-.25-1.94-1.09-1.94-2.7v-.79h-.66v.77a2.973,2.973,0,0,1-1.64,3l.38.55a2.877,2.877,0,0,0,1.56-2.52h.07c.16,1.73,1.22,2.34,3.3,2.34h3.4l.11-.57Zm2.91-6.37v1.29h-7.34V-6.66Zm4.57-1.78a9.082,9.082,0,0,1-2.36,4.48l.38.55a7.11,7.11,0,0,0,1-1.18V.74h.63V-5.67a11.732,11.732,0,0,0,.94-2.59Zm6.89,2.55v-.58h-3.03V-8.31h-.63v1.84H192v.58h2.72c-.25,1.44-1.07,2.83-3.01,4.48l.43.52c1.59-1.39,2.39-2.46,2.64-4.07h.07V.74h.63v-5.7h.07c.27,1.57,1.16,2.66,2.67,4.07l.43-.52c-1.82-1.66-2.77-3.04-3.04-4.48Zm4.42,2.08a5.94,5.94,0,0,0-2-4.53h-.75a5.717,5.717,0,0,1,2.03,4.28v.5A5.717,5.717,0,0,1,200.18.72h.75A5.94,5.94,0,0,0,202.93-3.81Z" transform="translate(1653 74)"/>
    <g id="フリーダイヤルのアイコン" transform="translate(1652.948 -51.064)">
      <path id="パス_4149" data-name="パス 4149" d="M0,88.032v3.284a18.928,18.928,0,0,1,6.905,1.291q.57.225,1.106.483a17.5,17.5,0,0,1,2.614-1,19.217,19.217,0,0,1,5.427-.772,18.936,18.936,0,0,1,6.935,1.291q.57.225,1.106.483a17.514,17.514,0,0,1,2.614-1,19.226,19.226,0,0,1,5.4-.772V88.032Z" fill="#0063ae"/>
      <path id="パス_4150" data-name="パス 4150" d="M320.59,211.025a3.991,3.991,0,0,0,6.221,3.31,3.983,3.983,0,0,0,1.76-3.309,3.406,3.406,0,0,0-.256-1.255,5.531,5.531,0,0,0-.794-1.354,10.09,10.09,0,0,0-2.941-2.451,10.849,10.849,0,0,0-2.415,1.846,6,6,0,0,0-1.374,2.1A3.333,3.333,0,0,0,320.59,211.025Z" transform="translate(-300.488 -110.539)" fill="#0063ae"/>
      <path id="パス_4151" data-name="パス 4151" d="M28,175.862a8.05,8.05,0,0,1,1.834,2.85,5.4,5.4,0,0,1,.319,1.8,6.06,6.06,0,1,1-12.12,0,5.747,5.747,0,0,1,.695-2.657,9.036,9.036,0,0,1,1.83-2.359,12.6,12.6,0,0,1,1.312-1.073c-.317-.116-.642-.225-.976-.324a17.165,17.165,0,0,0-4.842-.688,16.929,16.929,0,0,0-5.819,1.011,12.138,12.138,0,0,1,1.685,1.442,8.056,8.056,0,0,1,1.834,2.85,5.4,5.4,0,0,1,.32,1.8,6.06,6.06,0,1,1-12.12,0,5.75,5.75,0,0,1,.694-2.657,9.039,9.039,0,0,1,1.831-2.359,12.561,12.561,0,0,1,1.312-1.073c-.317-.116-.642-.225-.976-.324A17.173,17.173,0,0,0,0,173.409v15.71H32.1v-15.71a16.933,16.933,0,0,0-5.789,1.011A12.132,12.132,0,0,1,28,175.862Z" transform="translate(0 -80.024)" fill="#0063ae"/>
      <path id="パス_4152" data-name="パス 4152" d="M64.118,211.025a3.991,3.991,0,0,0,6.221,3.31,3.984,3.984,0,0,0,1.76-3.309,3.415,3.415,0,0,0-.256-1.255,5.548,5.548,0,0,0-.794-1.354,10.1,10.1,0,0,0-2.941-2.451,10.84,10.84,0,0,0-2.414,1.846,6,6,0,0,0-1.374,2.1A3.328,3.328,0,0,0,64.118,211.025Z" transform="translate(-60.098 -110.539)" fill="#0063ae"/>
    </g>
  </g>
</svg>
