<svg xmlns="http://www.w3.org/2000/svg" width="28.414" height="158.875" viewBox="0 0 28.414 158.875">
  <g id="グループ_2029" data-name="グループ 2029" transform="translate(-63.293 -782.332)">
    <path id="パス_4157" data-name="パス 4157" d="M3.708.1c2.22,0,3.252-1.1,3.252-2.388,0-3.084-5.088-1.8-5.088-3.852,0-.732.612-1.332,2.04-1.332a4.338,4.338,0,0,1,2.3.684l.4-.96a4.942,4.942,0,0,0-2.7-.744C1.7-8.5.7-7.392.7-6.1c0,3.12,5.088,1.824,5.088,3.876,0,.732-.624,1.3-2.076,1.3A4.323,4.323,0,0,1,.936-1.9L.492-.96A4.986,4.986,0,0,0,3.708.1Zm9.48,0a4.168,4.168,0,0,0,3.2-1.32l-.78-.756A3.124,3.124,0,0,1,13.248-.972,3.173,3.173,0,0,1,9.948-4.2a3.173,3.173,0,0,1,3.3-3.228,3.112,3.112,0,0,1,2.364,1l.78-.756A4.151,4.151,0,0,0,13.2-8.5,4.249,4.249,0,0,0,8.748-4.2,4.246,4.246,0,0,0,13.188.1ZM25.752,0,23.76-2.82a2.651,2.651,0,0,0,1.848-2.652c0-1.824-1.32-2.928-3.5-2.928H18.828V0h1.2V-2.556H22.1c.18,0,.36-.012.528-.024L24.444,0ZM22.068-3.576h-2.04v-3.78h2.04c1.536,0,2.34.684,2.34,1.884S23.6-3.576,22.068-3.576ZM32.064.1a4.256,4.256,0,0,0,4.452-4.3,4.256,4.256,0,0,0-4.452-4.3,4.269,4.269,0,0,0-4.476,4.3A4.269,4.269,0,0,0,32.064.1Zm0-1.068A3.16,3.16,0,0,1,28.788-4.2a3.16,3.16,0,0,1,3.276-3.228A3.154,3.154,0,0,1,35.316-4.2,3.154,3.154,0,0,1,32.064-.972ZM39.072,0H44.82V-1.044H40.272V-8.4h-1.2ZM46.92,0h5.748V-1.044H48.12V-8.4h-1.2Z" transform="translate(82 835) rotate(-90)" fill="#fff"/>
    <g id="グループ_1977" data-name="グループ 1977" transform="translate(-857.5 -90.026)">
      <line id="線_1102" data-name="線 1102" x2="13.675" y2="14.026" transform="translate(921.5 1016.5)" fill="none" stroke="#fff" stroke-linecap="round" stroke-width="1"/>
      <line id="線_1103" data-name="線 1103" x1="13.675" y2="14.026" transform="translate(934.825 1016.5)" fill="none" stroke="#fff" stroke-linecap="round" stroke-width="1"/>
    </g>
    <line id="線_1122" data-name="線 1122" y1="74" transform="translate(77.5 844.5)" fill="none" stroke="#fff" stroke-width="1"/>
  </g>
</svg>
